<?xml version="1.0" standalone="no"?>
<!DOCTYPE svg PUBLIC "-//W3C//DTD SVG 20010904//EN"
 "http://www.w3.org/TR/2001/REC-SVG-20010904/DTD/svg10.dtd">
<svg version="1.0" xmlns="http://www.w3.org/2000/svg"
 width="300.000000pt" height="243.000000pt" color="green" viewBox="0 0 300.000000 243.000000"
 preserveAspectRatio="xMidYMid meet">
<metadata>
Created by potrace 1.10, written by Peter Selinger 2001-2011
</metadata>
<g transform="translate(0.000000,243.000000) scale(0.100000,-0.100000)"
fill="#000000" stroke="none">
<path d="M639 2214 c-10 -13 -10 -19 0 -36 9 -14 10 -28 3 -47 -6 -14 -15 -84
-22 -156 -7 -71 -14 -139 -17 -150 -4 -21 -10 -66 -17 -150 -2 -27 -7 -61 -10
-75 -3 -14 -8 -52 -10 -85 -3 -33 -7 -70 -10 -83 -3 -12 -10 -64 -15 -115 -16
-137 -22 -180 -27 -197 -3 -8 -7 -55 -10 -104 -3 -58 -10 -99 -20 -115 -9 -13
-11 -21 -6 -17 6 3 13 2 16 -3 4 -5 2 -12 -3 -15 -5 -3 -12 -38 -16 -78 -4
-40 -9 -82 -11 -93 -8 -42 -17 -131 -17 -162 -1 -18 -3 -33 -7 -33 -3 0 -6
-12 -6 -28 -1 -15 -4 -56 -8 -91 -7 -57 -5 -65 15 -87 21 -23 29 -24 133 -24
138 1 157 12 166 96 3 31 2 58 -3 61 -4 3 0 11 9 17 10 8 13 15 7 19 -6 4 -7
26 -2 59 4 29 10 84 12 122 6 94 19 104 127 101 44 -1 85 -6 89 -11 10 -9 20
-80 27 -174 19 -285 20 -286 147 -288 51 -2 77 2 77 9 0 8 4 8 13 0 15 -12 52
-7 72 9 9 7 21 6 41 -5 36 -18 124 -20 124 -2 0 9 2 9 8 0 5 -7 28 -11 60 -9
88 4 87 0 88 269 1 128 4 239 6 247 2 8 15 59 28 113 12 54 24 96 25 95 2 -2
5 -35 8 -73 3 -39 9 -79 13 -89 6 -15 4 -17 -6 -11 -8 5 -11 4 -7 -2 3 -5 7
-56 8 -114 2 -159 29 -262 85 -328 26 -31 114 -97 114 -86 0 3 10 1 21 -6 37
-19 183 -39 192 -26 6 9 10 9 13 1 3 -7 24 -8 67 -2 34 5 72 9 85 10 12 1 22
6 22 10 0 4 10 8 23 8 48 0 136 75 167 144 10 22 27 65 36 94 14 46 15 55 3
63 -8 5 -9 9 -3 9 15 0 24 119 26 341 1 159 -1 179 -18 202 l-19 26 -186 1
c-235 0 -229 3 -228 -136 1 -111 12 -128 85 -137 25 -2 48 -8 52 -12 12 -11 6
-272 -7 -303 -29 -70 -175 -80 -210 -14 -19 36 -22 133 -21 632 0 509 0 533
-1 568 -1 19 6 64 16 103 9 35 54 59 110 59 37 0 51 -5 70 -26 31 -34 38 -84
38 -269 0 -194 -1 -193 172 -185 90 4 109 8 121 24 17 24 19 315 3 403 -6 32
-12 63 -13 70 -1 7 -5 16 -9 19 -4 4 -7 14 -7 22 0 31 -79 119 -134 151 -31
17 -61 31 -68 31 -7 0 -25 7 -40 14 -16 8 -28 11 -28 5 0 -5 -5 -9 -11 -9 -6
0 -8 7 -5 16 5 13 3 14 -7 6 -7 -6 -44 -11 -82 -10 -39 0 -100 -7 -137 -15
-43 -9 -83 -12 -110 -7 -24 4 -86 8 -139 9 -96 2 -97 2 -117 -26 -24 -33 -67
-266 -51 -272 6 -2 3 -11 -5 -20 -9 -10 -20 -46 -26 -82 -9 -59 -37 -304 -39
-339 0 -8 -2 -28 -5 -45 -2 -16 -8 -54 -11 -83 -4 -30 -9 -52 -11 -49 -6 6
-31 172 -38 257 -12 141 -40 319 -50 313 -5 -4 -7 0 -4 9 7 18 -36 263 -53
301 -7 15 -17 28 -23 28 -6 1 -49 3 -96 5 -47 2 -91 6 -99 9 -7 3 -20 0 -28
-7 -15 -12 -55 -19 -48 -9 1 3 -47 6 -108 6 -62 0 -136 2 -164 5 -29 4 -53 2
-53 -2 0 -17 -21 -7 -29 15 -8 19 -10 20 -16 5 -8 -21 -35 -24 -35 -5 0 7 5
18 12 25 7 7 9 12 6 12 -3 0 -11 -7 -19 -16z m1643 -69 c100 -25 161 -77 201
-170 29 -67 37 -140 37 -322 l0 -174 -126 3 -126 3 1 165 c1 193 -7 242 -43
279 -24 23 -34 26 -96 26 -65 0 -72 -2 -101 -32 -32 -31 -32 -33 -40 -165 -10
-168 -10 -890 0 -1065 8 -143 14 -159 73 -189 60 -31 161 -9 195 42 22 34 35
180 26 300 l-6 82 -66 -2 -66 -1 -3 107 -3 107 192 3 c105 2 193 0 195 -4 7
-10 6 -401 -1 -478 -13 -156 -38 -223 -108 -287 -70 -65 -154 -87 -310 -81
-149 6 -218 29 -278 91 -83 87 -103 222 -97 656 l5 266 41 175 c23 96 47 200
53 230 6 30 20 93 30 140 34 158 46 230 38 230 -4 0 -10 -15 -14 -32 -3 -18
-24 -114 -45 -213 -22 -99 -44 -202 -50 -230 -5 -27 -19 -93 -31 -145 -11 -52
-36 -165 -54 -250 -18 -85 -46 -211 -61 -280 -25 -113 -29 -149 -34 -375 l-5
-250 -124 0 -123 0 -2 235 c-1 208 -4 246 -24 330 -13 52 -31 136 -42 185 -10
50 -33 155 -50 235 -54 254 -70 334 -81 390 -5 30 -23 109 -39 175 -16 66 -34
148 -41 183 -6 34 -16 62 -21 62 -5 0 -7 -8 -4 -17 3 -10 8 -30 11 -45 3 -16
7 -38 10 -50 2 -13 6 -35 9 -49 2 -14 11 -53 20 -85 34 -124 111 -687 191
-1391 8 -73 16 -138 17 -145 4 -19 -250 -24 -257 -6 -2 7 -12 112 -22 233
l-18 220 -132 3 -131 3 -6 -48 c-7 -55 -14 -129 -30 -298 l-11 -120 -119 -3
c-66 -1 -125 -1 -131 2 -9 3 -8 29 2 103 7 54 20 154 28 223 8 69 23 197 34
285 19 154 26 210 70 575 11 91 27 219 35 285 8 66 17 143 20 170 4 48 11 100
22 173 l5 32 322 0 322 0 24 -127 c13 -71 31 -171 41 -223 28 -145 63 -458 74
-655 1 -5 13 -11 27 -13 26 -3 26 -2 32 75 31 378 40 449 112 823 l22 115 126
3 c109 2 127 0 127 -13 0 -19 4 -19 39 0 63 32 233 37 343 10z m-1002 -1123
c0 -4 -5 -13 -12 -20 -9 -9 -8 -12 8 -13 10 0 13 -3 7 -6 -9 -3 -10 -10 -4
-21 5 -9 11 -35 15 -57 3 -22 12 -65 21 -95 8 -30 14 -82 14 -115 -1 -68 -15
-180 -19 -150 -8 73 -30 231 -34 255 -2 14 -7 59 -11 100 -4 41 -8 87 -10 103
-2 18 1 27 11 27 8 0 14 -4 14 -8z"/>
<path d="M850 1913 c0 -5 -5 -62 -10 -128 -13 -165 -18 -235 -25 -340 -5 -78
-24 -273 -40 -412 l-5 -43 110 0 c61 0 110 3 110 8 0 4 -4 34 -10 67 -11 69
-36 358 -51 590 -17 272 -16 265 -50 265 -16 0 -29 -3 -29 -7z m47 -130 c-1
-32 10 -173 23 -318 5 -55 12 -134 16 -175 3 -41 8 -97 10 -125 3 -27 6 -72 7
-100 l2 -50 -70 0 -70 0 0 70 c1 98 14 308 25 380 4 33 8 67 8 75 -1 72 17
230 25 230 7 0 6 5 -1 12 -17 17 -15 28 7 28 13 0 18 -7 18 -27z"/>
</g>
</svg>
